<svg width="186" height="41" viewBox="0 0 186 41" fill="none" xmlns="http://www.w3.org/2000/svg">
<g clip-path="url(#clip0_787_1460)">
<path d="M0 11.3846H6.15205L6.30386 13.0258C8.1473 11.2699 10.2582 10.6034 12.6077 10.7826C14.95 10.9617 16.8946 11.9508 18.326 14.065C18.6296 13.7066 18.8321 13.3984 19.0995 13.1548C21.3695 11.0836 24.066 10.3382 27.0589 10.9904C30.1313 11.6569 32.3868 14.0936 32.5314 17.2255C32.7266 21.5255 32.6037 25.8399 32.6181 30.1471C32.6181 30.1973 32.5748 30.2475 32.5314 30.3621H26.6324C26.6324 30.0468 26.6324 29.7458 26.6324 29.4448C26.6324 26.2986 26.6324 23.1524 26.6324 19.999C26.6324 17.7272 25.4179 16.2651 23.4732 16.172C21.4057 16.0716 19.6273 17.5552 19.5044 19.698C19.3598 22.1849 19.3887 24.6861 19.3598 27.1729C19.3453 28.2193 19.3598 29.2585 19.3598 30.3621H13.309C13.309 30.0325 13.309 29.7028 13.309 29.3731C13.309 26.1696 13.3306 22.9661 13.309 19.7625C13.2873 16.9962 10.9161 15.441 8.29189 16.4228C7.09184 16.8743 6.38338 17.9278 6.35446 19.3683C6.31832 21.3535 6.31109 23.3387 6.26771 25.3239C6.25325 25.9689 6.20265 26.6283 6.0653 27.2589C5.74721 28.7711 4.81464 29.8461 3.31097 30.2331C2.24105 30.5055 1.09884 30.5055 0 30.6201V11.3846Z" fill="black"/>
<path d="M181.048 0.999685C181.033 1.87403 181.004 2.75554 181.004 3.62988C181.004 10.1516 181.055 16.6734 180.975 23.1951C180.947 25.4956 182.226 25.8755 183.911 25.4813C184.265 25.3953 184.619 25.295 185.06 25.1731C185.219 25.9113 185.356 26.5921 185.515 27.273C185.674 27.9538 185.877 28.6203 185.993 29.3083C186.029 29.5018 185.906 29.8458 185.747 29.9247C183.282 31.1574 180.73 31.4225 178.214 30.2042C175.807 29.0432 174.91 26.886 174.896 24.3776C174.86 16.9457 174.881 9.52095 174.881 2.08903C174.881 1.72353 174.852 1.35802 174.838 0.985352C176.905 0.985352 178.98 0.985352 181.048 0.985352V0.999685Z" fill="black"/>
<path d="M150.686 23.3532C148.011 25.1664 145.293 26.9079 142.683 28.7928C137.586 32.4693 129.902 31.251 126.786 26.1769C123.359 20.6012 125.738 12.3236 134.022 10.9189C138.909 10.0948 143.377 12.2233 145.502 16.2797C145.828 16.896 146.044 17.5697 146.355 18.3007C148.04 17.2113 149.674 16.1292 151.329 15.0828C153.259 13.8645 155.095 12.4239 157.177 11.5353C162.484 9.27058 168.795 11.7288 171.036 16.7025C174.021 23.3317 169.149 30.8067 161.797 30.907C158.03 30.9643 154.835 29.789 152.544 26.7574C151.806 25.7756 151.351 24.5931 150.678 23.3389L150.686 23.3532ZM140.702 20.852C140.709 18.0498 138.598 15.7923 135.981 15.7923C133.321 15.7923 131.167 18.014 131.145 20.7732C131.123 23.5969 133.242 25.8473 135.938 25.8759C138.569 25.9046 140.695 23.6614 140.702 20.8592V20.852ZM166.04 20.809C166.033 18.0355 163.872 15.7637 161.255 15.7923C158.58 15.8138 156.491 18.014 156.483 20.809C156.483 23.6614 158.58 25.8688 161.298 25.8688C163.922 25.8688 166.048 23.5969 166.04 20.809Z" fill="black"/>
<path d="M41.7486 22.3927C41.9655 24.7076 44.0186 26.3702 46.2596 26.1839C47.7055 26.0621 48.9272 25.5747 49.7803 24.3421C49.9032 24.1701 50.2646 24.0339 50.4815 24.0769C52.0864 24.3779 53.684 24.7291 55.3612 25.0802C54.3708 27.4739 52.7515 29.2226 50.3369 30.1615C46.3247 31.7238 41.192 31.1146 38.1485 27.6388C35.3002 24.3922 34.8737 19.1533 37.2087 15.398C39.4642 11.7716 44.0837 9.97273 48.3778 11.0549C52.4695 12.0869 55.2383 15.2403 55.7154 19.4257C55.795 20.128 55.7805 20.8447 55.86 21.547C55.9395 22.2279 55.6648 22.4142 54.9925 22.407C50.9369 22.3784 46.8814 22.3927 42.833 22.3927C42.4932 22.3927 42.1535 22.3927 41.7559 22.3927H41.7486ZM41.8788 18.7018H49.6791C49.5272 16.9961 47.9585 15.7061 46.0066 15.6416C44.0475 15.5771 42.1896 16.9388 41.8788 18.7018Z" fill="black"/>
<path d="M123.149 18.0712L117.901 19.3182C117.134 18.3507 116.628 17.3187 115.797 16.7238C113.325 14.9465 109.761 16.4156 108.987 19.4185C107.968 23.3746 110.953 26.5494 114.756 25.5389C116.115 25.1806 116.968 24.2561 117.438 22.9947C117.612 22.5145 117.857 22.3855 118.334 22.5002C119.925 22.8657 121.523 23.2097 123.113 23.5609C122.831 27.0726 119.159 30.5126 114.778 30.8996C108.149 31.4873 102.936 27.3449 102.763 21.2532C102.589 15.1328 106.999 11.2198 112.725 10.7897C118.587 10.3526 122.65 14.452 123.142 18.0783L123.149 18.0712Z" fill="black"/>
<path d="M66.7117 11.3203C68.4178 11.3203 69.9648 11.3489 71.5119 11.3059C72.2276 11.2844 72.4661 11.5209 72.4372 12.2304C72.3866 13.4918 72.4227 14.7603 72.4227 16.1005H66.7912C66.7695 16.4373 66.7406 16.7025 66.7406 16.9748C66.7406 18.874 66.7334 20.7732 66.7406 22.6724C66.7551 24.9586 67.7238 25.8186 70.0299 25.5319C70.7022 25.4459 71.3601 25.2023 72.148 24.9944L73.565 29.7245C72.3577 30.1115 71.2299 30.6346 70.0371 30.821C67.8177 31.1793 65.6056 30.9858 63.5959 29.8893C62.1139 29.0795 61.2103 27.7608 60.8343 26.1483C60.603 25.1664 60.4873 24.1344 60.4657 23.1239C60.415 20.8305 60.4512 18.5443 60.4512 16.1363H56.9812C56.9812 14.6098 56.9595 13.2051 57.0101 11.7933C57.0101 11.6284 57.4077 11.3561 57.6318 11.3418C58.5427 11.2916 59.4608 11.3203 60.4584 11.3203V4.98486H66.7189V11.3203H66.7117Z" fill="black"/>
<path d="M82.0073 30.3835H76.0215C76.0071 30.0969 75.9709 29.8245 75.9709 29.5522C75.9709 23.7973 75.9781 18.0352 75.9492 12.2803C75.9492 11.5565 76.1155 11.277 76.8962 11.2985C78.559 11.3486 80.2217 11.3128 81.9856 11.3128V14.6669L82.1952 14.76C82.3687 14.5379 82.5422 14.3157 82.7157 14.0863C84.3423 11.9507 86.5111 10.9616 89.2148 11.0763C89.8654 11.105 90.1184 11.32 90.0678 12.0008C89.9594 13.4987 89.9016 15.0037 89.8727 16.5015C89.8582 17.0677 89.6269 17.1752 89.0991 17.2397C87.8557 17.383 86.54 17.4404 85.3978 17.8847C83.1712 18.7519 82.3109 20.7084 82.1446 22.9014C81.9856 24.987 82.0362 27.094 82.0001 29.1938C82.0001 29.5594 82.0001 29.9249 82.0001 30.3835H82.0073Z" fill="black"/>
<path d="M99.077 30.3907H93.1418C93.1274 30.0826 93.0984 29.8102 93.0984 29.5379C93.0984 23.7902 93.1057 18.0353 93.084 12.2875C93.084 11.5565 93.2575 11.277 94.0382 11.3057C95.4985 11.363 96.9661 11.3272 98.4336 11.32C98.8818 11.32 99.1999 11.363 99.1999 11.9507C99.1782 18.0138 99.1782 24.0768 99.171 30.1399C99.171 30.1901 99.1348 30.2474 99.0842 30.3979L99.077 30.3907Z" fill="black"/>
<path d="M96.0914 8.98378C94.0672 8.96945 92.6575 7.58627 92.672 5.62258C92.6864 3.65172 94.1829 2.20404 96.1781 2.21121C98.1445 2.22554 99.6988 3.75923 99.6771 5.66558C99.6554 7.61493 98.1589 8.99812 96.0914 8.98378Z" fill="black"/>
</g>
<defs>
<clipPath id="clip0_787_1460">
<rect width="186" height="40" fill="white" transform="translate(0 0.5)"/>
</clipPath>
</defs>
</svg>
